<svg width="24" height="22" viewBox="0 0 24 22" fill="none" xmlns="http://www.w3.org/2000/svg">
<path id="Vector" d="M0.238361 0.5L0 1.45027L0.476832 1.56889L3.78811 2.39384L5.39405 4.79358L8.80452 14.9868L6.79204 18.9969H7.76575C7.64841 19.2338 7.58741 19.4945 7.58747 19.7587C7.58747 20.7146 8.3758 21.5 9.33531 21.5C10.2948 21.5 11.0831 20.7146 11.0831 19.7587C11.0831 19.4861 11.0188 19.2275 10.9049 18.9969H16.5049C16.3876 19.2338 16.3266 19.4945 16.3267 19.7587C16.3267 20.7146 17.115 21.5 18.0745 21.5C19.034 21.5 19.8223 20.7146 19.8223 19.7587C19.8223 19.4861 19.758 19.2275 19.6441 18.9969H20.3139V18.0174H8.38285L9.63911 15.5142H20.1766L24 4.08688H6.10269L4.39548 1.53537L0.715357 0.618844L0.238361 0.5ZM6.52173 5.06626H11.4655V7.5694H7.35927L6.52173 5.06626ZM12.4486 5.06626H16.709V7.5694H12.4486V5.06626ZM17.6922 5.06626H22.6359L21.7984 7.5694H17.6922V5.06626ZM7.68688 8.54889H11.4655V11.052H8.52442L7.68688 8.54889ZM12.4486 8.54889H16.709V11.052H12.4486V8.54889ZM17.6922 8.54889H21.4708L20.6332 11.052H17.6922V8.54889ZM8.85214 12.0315H11.4655V14.5346H9.68958L8.85214 12.0315ZM12.4486 12.0315H16.709V14.5346H12.4486V12.0315ZM17.6922 12.0315H20.3055L19.4681 14.5346H17.6922V12.0315ZM9.33531 18.9968C9.76353 18.9968 10.1 19.332 10.1 19.7586C10.1 20.1852 9.76353 20.5204 9.33531 20.5204C8.90709 20.5204 8.57063 20.1852 8.57063 19.7586C8.57063 19.332 8.90709 18.9968 9.33531 18.9968ZM18.0745 18.9968C18.5027 18.9968 18.8392 19.332 18.8392 19.7586C18.8392 20.1852 18.5027 20.5204 18.0745 20.5204C17.6463 20.5204 17.3098 20.1852 17.3098 19.7586C17.3098 19.332 17.6463 18.9968 18.0745 18.9968Z" fill="black"/>
</svg>
